<svg id="Layer_1" data-name="Layer 1" xmlns="http://www.w3.org/2000/svg" viewBox="0 0 640 512"><defs><style>.cls-1{fill:#616161;}</style></defs><title>teacher</title><path class="cls-1" d="M208,352a22.88,22.88,0,0,0-7.06,1.09A131.91,131.91,0,0,1,160,360a132,132,0,0,1-40.95-6.91,22.82,22.82,0,0,0-7-1.09A112,112,0,0,0,0,464.62C.14,490.88,21.73,512,48,512H272c26.27,0,47.86-21.12,48-47.38A112,112,0,0,0,208,352Zm-48-32a96,96,0,1,0-96-96A96,96,0,0,0,160,320ZM592,0H208c-26.47,0-48,22.25-48,49.59V96c23.42,0,45.1,6.78,64,17.8V64H576V352H512V288H384v64H307.76a127.45,127.45,0,0,1,39.69,64H592c26.47,0,48-22.25,48-49.59V49.59C640,22.25,618.47,0,592,0Z" transform="translate(0)"/></svg>